# xmcd CD database file
# Copyright (C) 1993-1998 Ti Kan
# 
# Track frame offsets:
#     183
#     12525
#     23290
#     33673
#     46498
#     62445
#     76588
#     89748
#     105258
#     119913
#     130883
#     142558
#     153963
# 
# Disc length: 2255 seconds
# 
# Revision: 1
# Processed by: cddbd v1.4b41PL1 Copyright (c) Steve Scherf et al.
# Submitted via: DiscPlay 4.0.4
# 
DISCID=9908cd0d
DTITLE=Kenny Rogers - Kenny Rogers - Disc Two
DYEAR=1900
DGENRE=
TTITLE0=Reuben James
TTITLE1=She Even Woke Me Up To Say Goodbye
TTITLE2=Good Time Liberator
TTITLE3=Run Thru Your Mind
TTITLE4=The Way It Used To Be
TTITLE5=Loser
TTITLE6=Sleep Comes Easy
TTITLE7=My Washington Woman
TTITLE8=Church Without A Name
TTITLE9=Always Leaving, Always Gone
TTITLE10=Calico Silver
TTITLE11=Me and Bobby McGee
TTITLE12=Conditions (Just Dropped In)
EXTD=
EXTT0=
EXTT1=
EXTT2=
EXTT3=
EXTT4=
EXTT5=
EXTT6=
EXTT7=
EXTT8=
EXTT9=
EXTT10=
EXTT11=
EXTT12=
PLAYORDER=
